# xmcd CD database file
#
# Track frame offsets:
#	182
#	43032
#	71845
#	109675
#	162265
#	186975
#	214095
#	232422
#
# Disc length: 3503 seconds
#
# Revision: 3
# Processed by: cddbd v1.5.1PL0 Copyright (c) Steve Scherf et al.
# Submitted via: CDex 1.51
#
DISCID=780dad08
DTITLE=Charlie Haden (with Don Cherry and Ed Blackwell) - The Montreal Tapes Vol 2
DYEAR=1989
DGENRE=Jazz
TTITLE0=The Sphinx
TTITLE1=Art Deco
TTITLE2=Happy House
TTITLE3=Lonely Woman
TTITLE4=Mopti
TTITLE5=The Blessing
TTITLE6=When Will The Blues Leave?
TTITLE7=Law Years
EXTD=Recorded Live at the Montreal International Jazz Festival July 2, 1989\n w/ Ed Blackwell: drums\nDon Cherry: pocket trumpet.\n\nA 1994 Verve Release.\nSubmitted by rwright@waonline.com on 7-17-97. YEAR: 1989
EXTT0=
EXTT1=
EXTT2=
EXTT3=
EXTT4=
EXTT5=
EXTT6=
EXTT7=
PLAYORDER=
